<mxfile host="Electron" agent="Mozilla/5.0 (Windows NT 10.0; Win64; x64) AppleWebKit/537.36 (KHTML, like Gecko) draw.io/28.1.2 Chrome/138.0.7204.243 Electron/37.4.0 Safari/537.36" version="28.1.2">
  <diagram id="E1btzyLkmLdHGb-3DKLy" name="Página-1">
    <mxGraphModel dx="872" dy="537" grid="1" gridSize="10" guides="1" tooltips="1" connect="1" arrows="1" fold="1" page="1" pageScale="1" pageWidth="827" pageHeight="1169" math="0" shadow="0">
      <root>
        <mxCell id="0" />
        <mxCell id="1" parent="0" />
        <mxCell id="gs47zZYKdgsTXg6d-6sV-13" style="edgeStyle=orthogonalEdgeStyle;rounded=0;orthogonalLoop=1;jettySize=auto;html=1;dashed=1;endArrow=classic;endFill=1;flowAnimation=1;" edge="1" parent="1" source="gs47zZYKdgsTXg6d-6sV-1" target="gs47zZYKdgsTXg6d-6sV-8">
          <mxGeometry relative="1" as="geometry" />
        </mxCell>
        <mxCell id="gs47zZYKdgsTXg6d-6sV-20" value="Arquivo: CSV" style="edgeLabel;html=1;align=center;verticalAlign=middle;resizable=0;points=[];" vertex="1" connectable="0" parent="gs47zZYKdgsTXg6d-6sV-13">
          <mxGeometry x="-0.3898" y="-1" relative="1" as="geometry">
            <mxPoint as="offset" />
          </mxGeometry>
        </mxCell>
        <mxCell id="gs47zZYKdgsTXg6d-6sV-1" value="" style="sketch=0;pointerEvents=1;shadow=0;dashed=0;html=1;strokeColor=none;fillColor=#505050;labelPosition=center;verticalLabelPosition=bottom;verticalAlign=top;outlineConnect=0;align=center;shape=mxgraph.office.users.csv_file;" vertex="1" parent="1">
          <mxGeometry x="40" y="123.88" width="90" height="70" as="geometry" />
        </mxCell>
        <mxCell id="gs47zZYKdgsTXg6d-6sV-2" value="Region" style="points=[[0,0],[0.25,0],[0.5,0],[0.75,0],[1,0],[1,0.25],[1,0.5],[1,0.75],[1,1],[0.75,1],[0.5,1],[0.25,1],[0,1],[0,0.75],[0,0.5],[0,0.25]];outlineConnect=0;gradientColor=none;html=1;whiteSpace=wrap;fontSize=12;fontStyle=0;container=1;pointerEvents=0;collapsible=0;recursiveResize=0;shape=mxgraph.aws4.group;grIcon=mxgraph.aws4.group_region;strokeColor=#00A4A6;fillColor=none;verticalAlign=top;align=left;spacingLeft=30;fontColor=#147EBA;dashed=1;" vertex="1" parent="1">
          <mxGeometry x="200" y="40" width="560" height="560" as="geometry" />
        </mxCell>
        <mxCell id="gs47zZYKdgsTXg6d-6sV-3" value="VPC" style="points=[[0,0],[0.25,0],[0.5,0],[0.75,0],[1,0],[1,0.25],[1,0.5],[1,0.75],[1,1],[0.75,1],[0.5,1],[0.25,1],[0,1],[0,0.75],[0,0.5],[0,0.25]];outlineConnect=0;gradientColor=none;html=1;whiteSpace=wrap;fontSize=12;fontStyle=0;container=1;pointerEvents=0;collapsible=0;recursiveResize=0;shape=mxgraph.aws4.group;grIcon=mxgraph.aws4.group_vpc2;strokeColor=#8C4FFF;fillColor=none;verticalAlign=top;align=left;spacingLeft=30;fontColor=#AAB7B8;dashed=0;" vertex="1" parent="gs47zZYKdgsTXg6d-6sV-2">
          <mxGeometry x="40" y="40" width="480" height="490" as="geometry" />
        </mxCell>
        <mxCell id="gs47zZYKdgsTXg6d-6sV-6" value="EBS" style="outlineConnect=0;dashed=0;verticalLabelPosition=bottom;verticalAlign=top;align=center;html=1;shape=mxgraph.aws3.volume;fillColor=#E05243;gradientColor=none;" vertex="1" parent="gs47zZYKdgsTXg6d-6sV-3">
          <mxGeometry x="335" y="400" width="50" height="66.75" as="geometry" />
        </mxCell>
        <mxCell id="gs47zZYKdgsTXg6d-6sV-14" style="edgeStyle=orthogonalEdgeStyle;rounded=0;orthogonalLoop=1;jettySize=auto;html=1;dashed=1;flowAnimation=1;" edge="1" parent="gs47zZYKdgsTXg6d-6sV-3" source="gs47zZYKdgsTXg6d-6sV-8" target="gs47zZYKdgsTXg6d-6sV-9">
          <mxGeometry relative="1" as="geometry" />
        </mxCell>
        <mxCell id="gs47zZYKdgsTXg6d-6sV-21" value="Evento: Novo Objeto Criado" style="edgeLabel;html=1;align=center;verticalAlign=middle;resizable=0;points=[];" vertex="1" connectable="0" parent="gs47zZYKdgsTXg6d-6sV-14">
          <mxGeometry x="-0.2571" y="-1" relative="1" as="geometry">
            <mxPoint x="13" y="-1" as="offset" />
          </mxGeometry>
        </mxCell>
        <mxCell id="gs47zZYKdgsTXg6d-6sV-8" value="S3 - Dados Brutos" style="outlineConnect=0;dashed=0;verticalLabelPosition=bottom;verticalAlign=top;align=center;html=1;shape=mxgraph.aws3.bucket;fillColor=#E05243;gradientColor=none;" vertex="1" parent="gs47zZYKdgsTXg6d-6sV-3">
          <mxGeometry x="40" y="48.13" width="60" height="61.5" as="geometry" />
        </mxCell>
        <mxCell id="gs47zZYKdgsTXg6d-6sV-9" value="Lambda" style="outlineConnect=0;dashed=0;verticalLabelPosition=bottom;verticalAlign=top;align=center;html=1;shape=mxgraph.aws3.lambda;fillColor=#F58534;gradientColor=none;" vertex="1" parent="gs47zZYKdgsTXg6d-6sV-3">
          <mxGeometry x="330" y="40.38" width="60" height="69.25" as="geometry" />
        </mxCell>
        <mxCell id="gs47zZYKdgsTXg6d-6sV-16" style="edgeStyle=orthogonalEdgeStyle;rounded=0;orthogonalLoop=1;jettySize=auto;html=1;dashed=1;flowAnimation=1;" edge="1" parent="gs47zZYKdgsTXg6d-6sV-3" source="gs47zZYKdgsTXg6d-6sV-10" target="gs47zZYKdgsTXg6d-6sV-6">
          <mxGeometry relative="1" as="geometry" />
        </mxCell>
        <mxCell id="gs47zZYKdgsTXg6d-6sV-23" value="Armazenamento Anexado" style="edgeLabel;html=1;align=center;verticalAlign=middle;resizable=0;points=[];" vertex="1" connectable="0" parent="gs47zZYKdgsTXg6d-6sV-16">
          <mxGeometry x="0.0667" relative="1" as="geometry">
            <mxPoint as="offset" />
          </mxGeometry>
        </mxCell>
        <mxCell id="gs47zZYKdgsTXg6d-6sV-10" value="EC2" style="outlineConnect=0;dashed=0;verticalLabelPosition=bottom;verticalAlign=top;align=center;html=1;shape=mxgraph.aws3.ec2;fillColor=#F58534;gradientColor=none;" vertex="1" parent="gs47zZYKdgsTXg6d-6sV-3">
          <mxGeometry x="330" y="230" width="60" height="80" as="geometry" />
        </mxCell>
        <mxCell id="gs47zZYKdgsTXg6d-6sV-11" value="S3 - Dados Processados" style="outlineConnect=0;dashed=0;verticalLabelPosition=bottom;verticalAlign=top;align=center;html=1;shape=mxgraph.aws3.s3;fillColor=#E05243;gradientColor=none;" vertex="1" parent="gs47zZYKdgsTXg6d-6sV-3">
          <mxGeometry x="140" y="230" width="60" height="80" as="geometry" />
        </mxCell>
        <mxCell id="gs47zZYKdgsTXg6d-6sV-15" style="edgeStyle=orthogonalEdgeStyle;rounded=0;orthogonalLoop=1;jettySize=auto;html=1;entryX=0.5;entryY=0;entryDx=0;entryDy=0;entryPerimeter=0;dashed=1;flowAnimation=1;" edge="1" parent="gs47zZYKdgsTXg6d-6sV-3" source="gs47zZYKdgsTXg6d-6sV-9" target="gs47zZYKdgsTXg6d-6sV-10">
          <mxGeometry relative="1" as="geometry" />
        </mxCell>
        <mxCell id="gs47zZYKdgsTXg6d-6sV-22" value="Ação: Iniciar Processamento" style="edgeLabel;html=1;align=center;verticalAlign=middle;resizable=0;points=[];" vertex="1" connectable="0" parent="gs47zZYKdgsTXg6d-6sV-15">
          <mxGeometry x="-0.0002" relative="1" as="geometry">
            <mxPoint as="offset" />
          </mxGeometry>
        </mxCell>
        <mxCell id="gs47zZYKdgsTXg6d-6sV-25" style="edgeStyle=orthogonalEdgeStyle;rounded=0;orthogonalLoop=1;jettySize=auto;html=1;entryX=1;entryY=0.5;entryDx=0;entryDy=0;entryPerimeter=0;dashed=1;flowAnimation=1;" edge="1" parent="gs47zZYKdgsTXg6d-6sV-3" source="gs47zZYKdgsTXg6d-6sV-10" target="gs47zZYKdgsTXg6d-6sV-11">
          <mxGeometry relative="1" as="geometry" />
        </mxCell>
        <mxCell id="gs47zZYKdgsTXg6d-6sV-18" value="" style="outlineConnect=0;dashed=0;verticalLabelPosition=bottom;verticalAlign=top;align=center;html=1;shape=mxgraph.aws3.cloud_2;fillColor=light-dark(#2b1c12, #bd5c17);gradientColor=none;" vertex="1" parent="gs47zZYKdgsTXg6d-6sV-2">
          <mxGeometry x="520" width="30" height="20" as="geometry" />
        </mxCell>
      </root>
    </mxGraphModel>
  </diagram>
</mxfile>
